<?xml version="1.0" encoding="UTF-8"?>
<svg xmlns="http://www.w3.org/2000/svg" xmlns:xlink="http://www.w3.org/1999/xlink" viewBox="0 0 100 100" width="100px" height="100px">
<g id="surface271821746">
<path style=" stroke:none;fill-rule:nonzero;fill:rgb(0%,67.843139%,70.980394%);fill-opacity:1;" d="M 50 4.5 C 24.886719 4.5 4.5 24.886719 4.5 50 C 4.5 75.113281 24.886719 95.5 50 95.5 C 75.113281 95.5 95.5 75.113281 95.5 50 C 95.5 24.886719 75.113281 4.5 50 4.5 Z M 50 7.101562 C 73.707031 7.101562 92.898438 26.292969 92.898438 50 C 92.898438 73.707031 73.707031 92.898438 50 92.898438 C 26.292969 92.898438 7.101562 73.707031 7.101562 50 C 7.101562 26.292969 26.292969 7.101562 50 7.101562 Z M 50 12.300781 C 29.1875 12.300781 12.300781 29.1875 12.300781 50 C 12.300781 70.8125 29.1875 87.699219 50 87.699219 C 58.136719 87.699219 65.675781 85.121094 71.835938 80.734375 C 72.03125 80.601562 72.136719 80.375 72.117188 80.140625 C 72.097656 79.90625 71.949219 79.703125 71.734375 79.605469 C 71.519531 79.507812 71.269531 79.535156 71.082031 79.675781 C 68.234375 81.703125 65.074219 83.316406 61.699219 84.460938 L 61.699219 72.949219 C 61.699219 69.972656 60.238281 67.332031 58.054688 65.601562 L 59.035156 65.601562 C 68.363281 65.601562 75.941406 58.082031 75.941406 48.75 C 75.941406 44.382812 74.222656 40.441406 71.503906 37.445312 C 71.992188 34.492188 71.933594 30.546875 70.765625 27.042969 C 70.675781 26.777344 70.425781 26.601562 70.148438 26.601562 C 64.179688 26.601562 59.59375 30.886719 58.621094 31.800781 L 42.414062 31.800781 C 41.511719 30.9375 37.117188 26.601562 31.148438 26.601562 C 30.871094 26.601562 30.621094 26.777344 30.53125 27.042969 C 29.496094 30.15625 29.140625 33.707031 29.410156 36.480469 C 26.136719 39.558594 24.0625 43.902344 24.0625 48.75 C 24.0625 58.082031 31.640625 65.597656 40.96875 65.597656 L 42.261719 65.597656 C 40.496094 66.878906 39.109375 68.582031 38.578125 70.757812 C 37.371094 70.746094 36.015625 70.707031 34.761719 70.382812 C 33.386719 70.023438 32.195312 69.394531 31.453125 68.285156 C 29.832031 65.847656 28.621094 64.574219 27.523438 63.894531 C 26.425781 63.214844 25.449219 63.195312 24.648438 63.195312 C 24.140625 63.195312 23.671875 63.324219 23.316406 63.621094 C 22.960938 63.914062 22.761719 64.363281 22.734375 64.808594 C 22.6875 65.707031 23.179688 66.621094 24.0625 67.503906 C 25.660156 69.101562 25.535156 68.933594 27.136719 72.132812 C 28.535156 74.933594 32.105469 77.085938 38.300781 77.242188 L 38.300781 84.46875 C 23.9375 79.597656 13.601562 66.015625 13.601562 50 C 13.601562 29.890625 29.890625 13.601562 50 13.601562 C 70.109375 13.601562 86.398438 29.890625 86.398438 50 C 86.398438 53.75 85.832031 57.371094 84.78125 60.773438 C 84.703125 60.996094 84.753906 61.246094 84.914062 61.421875 C 85.074219 61.597656 85.316406 61.671875 85.546875 61.617188 C 85.777344 61.5625 85.960938 61.386719 86.023438 61.15625 C 87.113281 57.628906 87.699219 53.882812 87.699219 50 C 87.699219 29.1875 70.8125 12.300781 50 12.300781 Z M 31.652344 27.988281 C 36.878906 28.25 40.941406 32.171875 41.75 32.925781 C 41.867188 33.039062 42.027344 33.101562 42.191406 33.101562 L 58.835938 33.101562 C 59 33.097656 59.160156 33.035156 59.28125 32.921875 C 60.027344 32.222656 64.386719 28.257812 69.628906 27.992188 C 70.582031 31.203125 70.675781 34.878906 70.207031 37.488281 C 70.171875 37.691406 70.234375 37.902344 70.375 38.050781 C 73.015625 40.847656 74.640625 44.605469 74.640625 48.75 C 74.640625 57.378906 67.667969 64.300781 59.035156 64.300781 L 55.851562 64.300781 C 55.542969 64.300781 55.277344 64.511719 55.210938 64.8125 C 55.148438 65.109375 55.300781 65.414062 55.578125 65.542969 C 58.367188 66.820312 60.398438 69.683594 60.398438 72.949219 L 60.398438 84.867188 C 57.101562 85.851562 53.617188 86.398438 50 86.398438 C 46.382812 86.398438 42.894531 85.867188 39.601562 84.886719 L 39.601562 76.648438 C 39.601562 76.292969 39.308594 76 38.949219 76 C 32.59375 76 29.476562 73.910156 28.296875 71.550781 C 26.699219 68.355469 26.578125 68.183594 24.980469 66.585938 C 24.261719 65.867188 24.019531 65.1875 24.035156 64.882812 C 24.042969 64.730469 24.078125 64.679688 24.144531 64.621094 C 24.210938 64.566406 24.359375 64.496094 24.648438 64.496094 C 25.449219 64.496094 26.003906 64.480469 26.839844 65 C 27.675781 65.515625 28.800781 66.644531 30.371094 69.003906 C 31.34375 70.460938 32.871094 71.234375 34.433594 71.636719 C 36 72.042969 37.628906 72.097656 38.949219 72.097656 C 39.269531 72.097656 39.539062 71.867188 39.59375 71.554688 C 40.027344 68.882812 41.996094 66.648438 44.421875 65.539062 C 44.699219 65.410156 44.851562 65.109375 44.789062 64.808594 C 44.722656 64.507812 44.457031 64.296875 44.148438 64.296875 L 40.96875 64.296875 C 32.335938 64.296875 25.359375 57.378906 25.359375 48.75 C 25.359375 44.167969 27.34375 40.070312 30.488281 37.214844 C 30.644531 37.074219 30.71875 36.867188 30.695312 36.65625 C 30.414062 34.246094 30.769531 30.898438 31.652344 27.988281 Z M 32.023438 39.566406 C 31.855469 39.574219 31.695312 39.648438 31.582031 39.773438 C 30.421875 40.976562 29.519531 42.359375 28.90625 43.867188 C 28.8125 44.082031 28.839844 44.335938 28.984375 44.523438 C 29.128906 44.710938 29.363281 44.808594 29.597656 44.773438 C 29.832031 44.738281 30.027344 44.578125 30.113281 44.355469 C 30.660156 43.003906 31.472656 41.761719 32.519531 40.675781 C 32.707031 40.484375 32.761719 40.195312 32.652344 39.949219 C 32.539062 39.707031 32.292969 39.554688 32.023438 39.566406 Z M 28.726562 46.128906 C 28.417969 46.144531 28.164062 46.378906 28.121094 46.683594 C 28.015625 47.359375 27.960938 48.050781 27.960938 48.75 C 27.960938 49.4375 28.015625 50.117188 28.117188 50.777344 C 28.144531 51.015625 28.296875 51.222656 28.519531 51.3125 C 28.746094 51.402344 29 51.363281 29.183594 51.207031 C 29.367188 51.054688 29.449219 50.808594 29.402344 50.574219 C 29.308594 49.980469 29.261719 49.371094 29.261719 48.75 C 29.261719 48.117188 29.308594 47.496094 29.40625 46.886719 C 29.4375 46.691406 29.382812 46.492188 29.25 46.34375 C 29.117188 46.195312 28.921875 46.117188 28.726562 46.128906 Z M 29.453125 52.574219 C 29.234375 52.570312 29.03125 52.679688 28.910156 52.859375 C 28.785156 53.039062 28.761719 53.269531 28.84375 53.472656 C 30.480469 57.664062 34.234375 60.804688 38.785156 61.578125 C 39.019531 61.632812 39.265625 61.550781 39.425781 61.367188 C 39.582031 61.1875 39.625 60.929688 39.535156 60.707031 C 39.445312 60.480469 39.242188 60.324219 39 60.296875 C 34.90625 59.601562 31.527344 56.769531 30.054688 53 C 29.960938 52.746094 29.722656 52.578125 29.453125 52.574219 Z M 84.460938 62.917969 C 84.203125 62.925781 83.972656 63.089844 83.882812 63.335938 C 82.597656 66.597656 80.851562 69.628906 78.730469 72.355469 C 78.507812 72.636719 78.558594 73.046875 78.84375 73.265625 C 79.125 73.488281 79.535156 73.4375 79.753906 73.152344 C 81.953125 70.332031 83.757812 67.191406 85.089844 63.8125 C 85.175781 63.609375 85.148438 63.375 85.019531 63.191406 C 84.894531 63.011719 84.683594 62.90625 84.460938 62.917969 Z M 76.992188 74.683594 C 76.824219 74.695312 76.667969 74.773438 76.554688 74.898438 C 75.679688 75.828125 74.757812 76.710938 73.792969 77.546875 C 73.609375 77.695312 73.523438 77.933594 73.566406 78.167969 C 73.609375 78.398438 73.773438 78.589844 73.996094 78.664062 C 74.222656 78.742188 74.46875 78.6875 74.644531 78.527344 C 75.644531 77.664062 76.597656 76.75 77.5 75.785156 C 77.679688 75.601562 77.734375 75.332031 77.636719 75.09375 C 77.542969 74.855469 77.316406 74.695312 77.058594 74.683594 C 77.035156 74.683594 77.015625 74.683594 76.992188 74.683594 Z M 76.992188 74.683594 "/>
</g>
</svg>
